<?xml version="1.0" standalone="no"?>
<!DOCTYPE svg PUBLIC "-//W3C//DTD SVG 20010904//EN"
 "http://www.w3.org/TR/2001/REC-SVG-20010904/DTD/svg10.dtd">
<svg version="1.0" xmlns="http://www.w3.org/2000/svg"
 width="500.000000pt" height="500.000000pt" viewBox="0 0 500.000000 500.000000"
 preserveAspectRatio="xMidYMid meet">

<g transform="translate(0.000000,500.000000) scale(0.100000,-0.100000)"
fill="#000000" stroke="none">
<path d="M1828 2940 l-257 -145 -1 -807 c0 -445 2 -808 4 -808 2 0 118 58 257
129 l254 130 3 280 2 281 410 0 410 0 2 -281 3 -280 252 -130 c139 -71 255
-129 258 -129 3 0 4 363 3 807 l-3 807 -257 147 -258 148 0 -320 0 -319 -410
0 -410 0 -2 318 -3 317 -257 -145z"/>
</g>
</svg>

